<svg id="svg" version="1.1" xmlns="http://www.w3.org/2000/svg" xmlns:xlink="http://www.w3.org/1999/xlink" width="400" height="400" viewBox="0, 0, 400,400"><g id="svgg"><path id="path0" d="M7.000 97.600 C 6.864 97.820,6.481 98.000,6.148 98.000 C 5.815 98.000,4.341 99.208,2.871 100.685 L 0.200 103.369 0.200 180.051 L 0.200 256.733 1.100 257.513 C 1.595 257.943,2.000 258.477,2.000 258.701 C 2.000 258.925,2.495 259.429,3.100 259.821 C 3.705 260.213,4.491 260.864,4.847 261.267 C 5.203 261.670,5.777 262.000,6.123 262.000 C 6.470 262.000,6.859 262.172,6.990 262.383 C 7.423 263.085,306.627 262.435,308.800 261.728 C 313.037 260.348,315.594 257.552,316.779 253.000 C 317.429 250.504,317.322 109.171,316.669 106.800 C 315.713 103.334,313.662 100.683,310.790 99.203 C 307.332 97.420,309.941 97.455,199.746 97.722 C 132.449 97.885,95.147 97.837,94.992 97.588 C 94.658 97.046,7.335 97.059,7.000 97.600 M86.935 133.393 C 114.853 139.309,125.086 173.274,105.027 193.442 C 97.297 201.214,89.666 203.999,76.100 204.000 L 68.800 204.000 68.796 210.300 C 68.790 218.595,67.951 221.404,64.601 224.346 C 63.337 225.456,62.500 225.913,59.481 227.144 C 56.308 228.438,51.355 226.976,48.189 223.811 C 46.529 222.150,45.796 220.864,44.861 217.972 C 44.091 215.586,44.225 144.806,45.005 142.234 C 46.641 136.842,50.286 133.786,55.771 133.207 C 61.277 132.626,83.953 132.762,86.935 133.393 M161.337 134.536 C 174.386 138.197,184.309 145.438,190.480 155.800 C 207.328 184.088,191.652 219.695,159.400 226.399 C 158.080 226.673,156.370 227.054,155.600 227.246 C 153.480 227.775,137.059 227.690,135.719 227.144 C 132.539 225.847,131.751 225.372,130.189 223.811 C 128.434 222.055,127.625 220.588,126.850 217.754 C 126.209 215.409,126.215 144.838,126.856 142.828 C 128.442 137.862,131.154 134.848,135.197 133.559 C 137.986 132.670,157.253 133.390,161.337 134.536 M265.696 134.527 C 272.896 138.063,274.539 147.781,268.891 153.429 C 265.400 156.920,263.828 157.190,246.900 157.195 L 232.800 157.200 232.800 168.553 L 232.800 179.906 241.900 180.094 C 252.231 180.308,252.797 180.443,256.009 183.447 C 261.006 188.121,261.184 195.439,256.417 200.234 C 253.175 203.497,251.123 204.000,241.072 204.000 L 232.800 204.000 232.800 209.580 C 232.800 217.679,231.958 220.815,228.987 223.787 C 223.378 229.395,213.861 227.816,210.081 220.649 L 209.000 218.600 209.000 180.372 L 209.000 142.144 210.000 140.180 C 211.715 136.811,214.645 134.448,218.200 133.564 C 218.860 133.400,229.300 133.296,241.400 133.333 L 263.400 133.400 265.696 134.527 M71.694 157.070 L 68.788 157.235 68.894 168.518 L 69.000 179.800 75.828 179.800 C 82.321 179.800,82.753 179.751,84.620 178.800 C 93.385 174.337,93.609 162.755,85.022 158.000 C 83.339 157.068,78.126 156.704,71.694 157.070 M150.897 180.061 L 151.000 203.000 153.200 202.917 C 168.588 202.335,178.357 183.984,170.941 169.591 C 168.369 164.599,161.851 158.800,158.811 158.800 C 158.391 158.800,157.948 158.640,157.827 158.444 C 157.597 158.071,155.898 157.706,152.697 157.340 L 150.793 157.122 150.897 180.061 " stroke="none" fill="#fb4774" fill-rule="evenodd"></path><path id="path1" d="M216.667 262.667 C 216.520 262.813,216.400 273.523,216.400 286.467 L 216.400 310.000 205.900 310.010 C 192.363 310.022,191.044 310.358,189.930 314.076 C 188.965 317.298,188.241 316.467,217.089 345.268 C 247.632 375.761,245.990 374.494,251.351 371.722 C 252.553 371.100,303.060 320.860,304.700 318.655 C 306.464 316.283,305.659 312.536,303.046 310.954 C 301.916 310.270,300.731 310.189,290.300 310.077 L 278.800 309.955 278.800 286.177 L 278.800 262.400 247.867 262.400 C 230.853 262.400,216.813 262.520,216.667 262.667 " stroke="none" fill="#04dc88" fill-rule="evenodd"></path><path id="path2" d="M101.407 0.294 C 100.219 0.595,96.133 4.908,95.420 6.614 C 94.866 7.940,94.808 13.072,94.898 52.753 L 95.000 97.400 202.000 97.600 L 309.000 97.800 310.828 98.677 C 313.190 99.811,315.674 102.524,316.638 105.023 C 317.377 106.942,317.400 109.164,317.400 180.200 L 317.400 253.400 316.356 255.627 C 315.781 256.851,314.619 258.525,313.774 259.347 C 312.347 260.732,311.701 261.112,308.681 262.344 C 307.916 262.656,303.079 262.800,293.378 262.800 L 279.194 262.800 279.297 286.100 L 279.400 309.400 291.000 309.600 C 303.972 309.824,303.866 309.801,305.524 312.751 C 306.621 314.703,306.637 316.606,305.570 318.357 C 304.612 319.928,254.088 370.533,252.015 371.997 C 250.083 373.362,245.514 373.349,243.523 371.973 C 240.261 369.718,189.785 318.610,189.328 317.100 C 188.725 315.106,189.338 313.142,191.119 311.361 L 192.480 310.000 204.240 310.000 L 216.000 310.000 216.000 286.400 L 216.000 262.800 155.400 262.800 L 94.800 262.800 94.800 327.351 C 94.800 400.569,94.415 393.229,98.474 397.339 L 100.904 399.800 246.152 399.916 C 385.856 400.028,395.643 399.979,394.368 399.171 C 393.934 398.897,394.012 398.811,394.700 398.806 C 395.195 398.803,395.600 398.663,395.600 398.495 C 395.600 398.327,395.990 398.012,396.467 397.795 C 396.944 397.578,397.529 397.043,397.767 396.606 C 398.005 396.169,398.560 395.479,399.000 395.072 C 399.797 394.335,399.800 393.754,399.902 238.166 L 400.004 82.000 355.728 82.000 L 311.453 82.000 309.681 81.142 C 308.503 80.572,307.522 79.674,306.755 78.464 L 305.600 76.643 305.600 38.322 L 305.600 0.000 203.900 0.046 C 147.965 0.072,101.843 0.183,101.407 0.294 M64.400 133.558 C 58.790 133.691,53.840 133.954,53.400 134.143 C 52.960 134.331,52.056 134.725,51.391 135.018 C 49.683 135.771,47.371 138.200,46.307 140.360 L 45.400 142.200 45.400 180.400 L 45.400 218.600 46.302 220.289 C 50.892 228.878,62.491 228.987,66.839 220.481 C 67.723 218.750,67.816 218.009,68.000 211.200 L 68.200 203.800 75.800 203.560 C 84.167 203.295,85.678 203.118,89.800 201.921 C 104.916 197.530,114.806 184.111,114.798 168.000 C 114.796 163.688,114.662 162.681,113.546 158.600 C 111.064 149.517,103.099 140.200,94.657 136.503 C 87.818 133.508,83.650 133.103,64.400 133.558 M135.600 134.081 C 135.050 134.316,134.042 134.750,133.360 135.045 C 131.804 135.717,129.060 138.662,128.117 140.673 C 127.443 142.107,127.400 144.516,127.400 180.400 L 127.400 218.600 128.300 220.284 C 129.485 222.501,131.953 224.983,133.864 225.880 C 135.750 226.764,156.134 226.970,159.000 226.133 C 159.880 225.876,161.410 225.454,162.400 225.194 C 163.390 224.934,164.513 224.560,164.895 224.361 C 165.277 224.162,165.864 224.000,166.200 224.000 C 166.536 224.000,167.123 223.831,167.505 223.624 C 167.887 223.417,169.370 222.680,170.800 221.986 C 180.016 217.514,187.920 209.529,192.364 200.200 C 194.165 196.420,194.241 196.206,195.628 191.000 C 197.900 182.472,196.952 170.679,193.329 162.400 C 192.027 159.423,190.988 157.394,190.700 157.267 C 190.535 157.193,190.400 156.956,190.400 156.739 C 190.400 156.333,188.466 153.396,187.020 151.609 C 184.419 148.391,177.036 141.604,176.133 141.601 C 175.877 141.601,175.607 141.444,175.533 141.254 C 175.360 140.802,170.018 138.003,167.200 136.888 C 164.509 135.822,161.226 134.954,157.000 134.192 C 153.142 133.496,137.163 133.414,135.600 134.081 M217.730 134.169 C 214.330 135.246,211.894 137.320,210.443 140.375 C 209.111 143.179,209.115 217.378,210.448 220.212 C 213.826 227.399,223.974 228.963,229.015 223.074 C 231.609 220.044,231.787 219.327,231.924 211.400 C 231.994 207.385,232.223 204.023,232.443 203.800 C 232.671 203.568,236.744 203.315,242.119 203.199 C 250.773 203.012,251.514 202.938,253.089 202.097 C 261.249 197.740,261.371 186.095,253.300 181.971 C 251.481 181.041,251.025 180.996,242.600 180.897 C 237.760 180.841,233.395 180.702,232.900 180.590 L 232.000 180.385 232.000 168.600 L 232.000 156.815 232.900 156.611 C 233.395 156.498,240.550 156.356,248.800 156.295 C 265.541 156.172,265.242 156.218,268.244 153.305 C 274.049 147.672,272.381 138.118,265.000 134.720 L 263.000 133.800 241.200 133.720 C 224.054 133.657,219.043 133.753,217.730 134.169 M82.200 156.428 C 93.893 159.522,95.547 174.446,84.744 179.387 C 82.550 180.390,82.287 180.416,75.344 180.309 L 68.200 180.200 68.200 168.400 L 68.200 156.600 71.200 156.372 C 76.470 155.972,80.554 155.992,82.200 156.428 M157.234 157.616 C 171.623 162.193,178.390 178.051,171.480 191.000 C 171.245 191.440,170.788 192.325,170.464 192.966 C 167.730 198.382,156.628 204.706,151.197 203.941 L 150.200 203.800 150.096 180.800 C 150.039 168.150,150.078 157.575,150.184 157.300 C 150.482 156.521,154.334 156.694,157.234 157.616 " stroke="none" fill="#e7effb" fill-rule="evenodd"></path><path id="path3" d="M305.600 38.322 L 305.600 76.643 306.755 78.464 C 307.522 79.674,308.503 80.572,309.681 81.142 L 311.453 82.000 355.726 82.000 C 403.346 82.000,401.608 82.076,399.128 80.096 C 398.649 79.713,397.673 78.860,396.959 78.200 C 396.246 77.540,395.262 76.730,394.773 76.400 C 394.284 76.070,393.083 75.035,392.105 74.100 C 391.127 73.165,390.249 72.400,390.155 72.400 C 390.060 72.400,389.021 71.455,387.847 70.300 C 385.536 68.028,384.111 66.800,383.785 66.800 C 383.672 66.800,382.792 66.013,381.831 65.052 C 380.869 64.091,379.390 62.786,378.544 62.152 C 377.698 61.518,376.634 60.640,376.179 60.200 C 375.725 59.760,374.663 58.860,373.819 58.200 C 372.975 57.540,371.398 56.145,370.316 55.100 C 369.233 54.055,367.688 52.705,366.882 52.100 C 366.076 51.495,364.464 50.055,363.299 48.900 C 362.135 47.745,361.014 46.800,360.808 46.800 C 360.602 46.800,359.722 46.125,358.853 45.300 C 356.632 43.192,355.231 42.000,354.975 42.000 C 354.854 42.000,353.731 40.961,352.478 39.690 C 351.225 38.420,349.570 36.939,348.800 36.399 C 348.030 35.860,346.532 34.555,345.471 33.500 C 344.411 32.444,343.340 31.540,343.093 31.490 C 342.846 31.441,341.629 30.410,340.389 29.200 C 337.944 26.813,336.520 25.600,336.164 25.600 C 336.039 25.600,335.246 24.880,334.400 24.000 C 333.554 23.120,332.708 22.400,332.520 22.400 C 332.331 22.400,331.917 22.040,331.600 21.600 C 331.283 21.160,330.871 20.800,330.686 20.800 C 330.500 20.800,329.471 19.900,328.400 18.800 C 327.329 17.700,326.300 16.800,326.115 16.800 C 325.929 16.800,325.491 16.485,325.140 16.100 C 323.950 14.793,321.008 12.124,318.670 10.229 C 317.388 9.191,315.589 7.635,314.672 6.771 C 313.755 5.907,312.857 5.200,312.676 5.200 C 312.496 5.200,311.505 4.339,310.474 3.286 C 308.360 1.126,306.864 0.000,306.111 0.000 C 305.700 0.000,305.600 7.491,305.600 38.322 M216.188 286.400 C 216.188 299.490,216.238 304.845,216.300 298.300 C 216.361 291.755,216.361 281.045,216.300 274.500 C 216.238 267.955,216.188 273.310,216.188 286.400 M278.895 286.277 L 278.800 309.955 290.300 310.077 C 304.322 310.227,305.600 310.695,305.600 315.684 C 305.600 318.155,306.647 317.016,278.399 345.257 C 251.630 372.020,251.909 371.761,248.911 372.633 L 247.000 373.189 248.992 372.956 C 251.862 372.621,251.066 373.351,279.071 345.366 C 308.863 315.596,307.835 316.863,305.524 312.751 C 303.866 309.801,303.972 309.824,291.000 309.600 L 279.400 309.400 279.195 286.000 L 278.990 262.600 278.895 286.277 M191.119 311.361 C 189.338 313.142,188.725 315.106,189.328 317.100 C 189.693 318.307,194.908 323.731,215.991 344.829 C 242.799 371.658,244.040 372.826,245.662 372.764 C 246.381 372.736,246.273 372.636,245.200 372.335 C 243.102 371.747,190.575 319.257,189.925 317.100 C 189.057 314.218,190.816 311.072,193.674 310.396 L 195.000 310.082 193.740 310.041 C 192.808 310.011,192.126 310.354,191.119 311.361 " stroke="none" fill="#bcd4fc" fill-rule="evenodd"></path><path id="path4" d="M95.142 97.702 C 95.309 97.869,109.745 97.959,127.222 97.902 L 159.000 97.800 126.920 97.600 C 109.276 97.490,94.976 97.536,95.142 97.702 M307.800 98.162 C 312.368 99.291,315.780 102.561,316.605 106.600 C 316.812 107.618,316.994 107.929,317.103 107.456 C 317.912 103.963,311.344 97.522,307.088 97.634 C 305.975 97.663,306.072 97.735,307.800 98.162 M317.396 180.000 C 317.396 219.490,317.443 235.645,317.500 215.900 C 317.557 196.155,317.557 163.845,317.500 144.100 C 317.443 124.355,317.396 140.510,317.396 180.000 M55.771 133.207 C 51.598 133.648,48.813 135.263,46.788 138.418 C 44.324 142.259,44.409 140.759,44.404 180.372 C 44.400 217.273,44.399 217.255,45.907 220.756 C 47.425 224.283,52.608 227.600,56.600 227.600 C 58.279 227.600,58.882 227.432,61.916 226.117 C 67.024 223.904,68.789 219.846,68.796 210.300 L 68.800 204.000 76.100 204.000 C 89.666 203.999,97.297 201.214,105.027 193.442 C 125.086 173.274,114.853 139.309,86.935 133.393 C 83.953 132.762,61.277 132.626,55.771 133.207 M87.703 134.167 C 90.098 134.801,92.988 135.772,94.657 136.503 C 103.099 140.200,111.064 149.517,113.546 158.600 C 114.662 162.681,114.796 163.688,114.798 168.000 C 114.806 184.111,104.916 197.530,89.800 201.921 C 85.678 203.118,84.167 203.295,75.800 203.560 L 68.200 203.800 68.000 211.200 C 67.816 218.009,67.723 218.750,66.839 220.481 C 62.491 228.987,50.892 228.878,46.302 220.289 L 45.400 218.600 45.400 180.400 L 45.400 142.200 46.307 140.360 C 47.371 138.200,49.683 135.771,51.391 135.018 C 52.056 134.725,52.960 134.331,53.400 134.143 C 55.593 133.203,84.139 133.223,87.703 134.167 M135.197 133.559 C 131.154 134.848,128.442 137.862,126.856 142.828 C 126.215 144.838,126.209 215.409,126.850 217.754 C 127.625 220.588,128.434 222.055,130.189 223.811 C 131.751 225.372,132.539 225.847,135.719 227.144 C 137.059 227.690,153.480 227.775,155.600 227.246 C 156.370 227.054,158.080 226.673,159.400 226.399 C 175.107 223.134,188.282 212.181,194.104 197.547 C 195.413 194.255,196.816 188.845,196.752 187.333 C 196.715 186.464,196.616 186.620,196.327 188.000 C 195.227 193.252,194.268 196.203,192.364 200.200 C 187.920 209.529,180.016 217.514,170.800 221.986 C 169.370 222.680,167.887 223.417,167.505 223.624 C 167.123 223.831,166.536 224.000,166.200 224.000 C 165.864 224.000,165.277 224.162,164.895 224.361 C 164.513 224.560,163.480 224.905,162.600 225.128 C 161.720 225.351,160.190 225.774,159.200 226.067 C 156.161 226.967,135.862 226.817,133.864 225.880 C 131.953 224.983,129.485 222.501,128.300 220.284 L 127.400 218.600 127.400 180.400 C 127.400 137.441,127.147 140.975,130.476 137.363 C 131.997 135.714,132.625 135.318,135.719 134.056 C 140.187 132.234,159.935 134.010,167.200 136.888 C 170.018 138.003,175.360 140.802,175.533 141.254 C 175.607 141.444,175.877 141.601,176.133 141.601 C 177.036 141.604,184.419 148.391,187.020 151.609 C 188.466 153.396,190.400 156.333,190.400 156.739 C 190.400 156.956,190.535 157.193,190.700 157.267 C 190.988 157.394,192.027 159.423,193.329 162.400 C 194.021 163.979,194.967 166.807,195.405 168.600 C 195.567 169.260,195.781 169.577,195.881 169.305 C 196.121 168.654,194.218 162.810,192.927 160.231 C 186.253 146.903,176.164 138.696,161.337 134.536 C 157.253 133.390,137.986 132.670,135.197 133.559 M218.200 133.564 C 214.645 134.448,211.715 136.811,210.000 140.180 L 209.000 142.144 209.000 180.372 L 209.000 218.600 210.081 220.649 C 213.861 227.816,223.378 229.395,228.987 223.787 C 231.958 220.815,232.800 217.679,232.800 209.580 L 232.800 204.000 241.072 204.000 C 251.123 204.000,253.175 203.497,256.417 200.234 C 261.184 195.439,261.006 188.121,256.009 183.447 C 252.797 180.443,252.231 180.308,241.900 180.094 L 232.800 179.906 232.800 168.553 L 232.800 157.200 246.900 157.195 C 263.828 157.190,265.400 156.920,268.891 153.429 C 274.539 147.781,272.896 138.063,265.696 134.527 L 263.400 133.400 241.400 133.333 C 229.300 133.296,218.860 133.400,218.200 133.564 M265.000 134.720 C 272.381 138.118,274.049 147.672,268.244 153.305 C 265.242 156.218,265.541 156.172,248.800 156.295 C 240.550 156.356,233.395 156.498,232.900 156.611 L 232.000 156.815 232.000 168.600 L 232.000 180.385 232.900 180.590 C 233.395 180.702,237.760 180.841,242.600 180.897 C 251.025 180.996,251.481 181.041,253.300 181.971 C 261.371 186.095,261.249 197.740,253.089 202.097 C 251.514 202.938,250.773 203.012,242.119 203.199 C 236.744 203.315,232.671 203.568,232.443 203.800 C 232.223 204.023,231.994 207.385,231.924 211.400 C 231.787 219.327,231.609 220.044,229.015 223.074 C 223.974 228.963,213.826 227.399,210.448 220.212 C 209.603 218.414,209.600 218.289,209.600 180.279 C 209.600 137.705,209.415 140.598,212.343 137.472 C 215.922 133.652,216.105 133.628,241.200 133.720 L 263.000 133.800 265.000 134.720 M71.200 156.372 L 68.200 156.600 68.200 168.400 L 68.200 180.200 75.344 180.309 C 87.017 180.488,91.820 177.007,91.777 168.400 C 91.728 158.765,85.744 155.267,71.200 156.372 M85.022 158.000 C 93.609 162.755,93.385 174.337,84.620 178.800 C 82.753 179.751,82.321 179.800,75.828 179.800 L 69.000 179.800 68.894 168.518 L 68.788 157.235 71.694 157.070 C 78.126 156.704,83.339 157.068,85.022 158.000 M150.184 157.300 C 150.078 157.575,150.039 168.150,150.096 180.800 L 150.200 203.800 151.197 203.941 C 156.628 204.706,167.730 198.382,170.464 192.966 C 170.788 192.325,171.245 191.440,171.480 191.000 C 177.598 179.535,172.582 164.459,160.800 158.904 C 156.952 157.090,150.630 156.134,150.184 157.300 M156.104 157.823 C 156.931 157.969,157.706 158.249,157.827 158.444 C 157.948 158.640,158.391 158.800,158.811 158.800 C 161.851 158.800,168.369 164.599,170.941 169.591 C 178.357 183.984,168.588 202.335,153.200 202.917 L 151.000 203.000 150.897 180.061 L 150.793 157.122 152.697 157.340 C 153.744 157.459,155.277 157.677,156.104 157.823 M196.249 171.800 C 196.384 172.900,196.609 176.590,196.747 180.000 C 196.981 185.726,197.021 185.971,197.268 183.200 C 197.547 180.089,197.023 172.901,196.375 170.929 C 196.092 170.069,196.062 170.276,196.249 171.800 M316.659 253.349 C 315.909 257.049,312.924 260.359,309.114 261.716 C 308.251 262.023,302.792 262.258,293.200 262.401 L 278.600 262.619 293.081 262.710 C 303.197 262.773,307.900 262.662,308.681 262.344 C 311.701 261.112,312.347 260.732,313.774 259.347 C 315.516 257.654,317.327 254.054,317.115 252.703 C 317.009 252.027,316.895 252.190,316.659 253.349 M125.500 262.700 C 142.275 262.758,169.725 262.758,186.500 262.700 C 203.275 262.642,189.550 262.595,156.000 262.595 C 122.450 262.595,108.725 262.642,125.500 262.700 " stroke="none" fill="#f3a8bc" fill-rule="evenodd"></path></g></svg>